<?xml version="1.0" encoding="UTF-8"?>
<svg xmlns="http://www.w3.org/2000/svg" xmlns:xlink="http://www.w3.org/1999/xlink" width="323.79pt" height="340.34pt" viewBox="0 0 323.79 340.34" version="1.1">
<defs>
<clipPath id="clip1">
  <path d="M 0 0 L 323.789063 0 L 323.789063 340.339844 L 0 340.339844 Z M 0 0 "/>
</clipPath>
</defs>
<g id="surface1">
<g clip-path="url(#clip1)" clip-rule="nonzero">
<path style=" stroke:none;fill-rule:nonzero;fill:rgb(13.699341%,12.199402%,12.5%);fill-opacity:1;" d="M 88.058594 58.179688 C 88.058594 58.179688 84.277344 22.960938 112.75 0.589844 C 116.25 -2.160156 116.25 5.589844 116.25 5.589844 C 116.25 5.589844 116.5 22.089844 127.25 30.589844 C 132.25 25.589844 149.75 20.839844 154 21.089844 C 158.25 21.339844 169 24.589844 179.25 29.089844 C 189.5 33.589844 198 37.089844 203 37.089844 C 208 37.089844 215.25 32.589844 223.75 32.589844 C 232.25 32.589844 240 37.589844 240 37.589844 C 240 37.589844 249.585938 33.472656 253.75 19.589844 C 255.25 14.589844 258.386719 21.589844 259.066406 22.339844 C 259.75 23.089844 267.136719 38.839844 259.066406 51.589844 C 263 56.089844 265.75 63.589844 266.25 67.339844 C 273 67.589844 290 69.6875 307.5 68.386719 C 325 67.089844 323.5 86.589844 323 90.089844 C 322.5 93.589844 324.773438 117.839844 323.261719 121.839844 C 321.75 125.839844 315.5 132.339844 315.5 132.339844 C 315.5 132.339844 318.40625 146.863281 304.5 154.589844 C 300 157.089844 302 150.589844 302 149.839844 C 302 149.089844 300.5 138.339844 299.5 137.089844 C 298.5 135.839844 296.5 135.839844 292 135.839844 C 287.5 135.839844 280.5 136.339844 279 137.089844 C 277.5 137.839844 276.5 139.339844 276.5 139.339844 C 276.5 139.339844 272.023438 152.289063 265 155.160156 C 261.5 156.589844 262 151.589844 262 151.589844 L 261.25 148.339844 C 261.25 148.339844 253.25 153.589844 253.25 162.839844 C 253.25 172.089844 260 174.339844 260 174.339844 C 260 174.339844 261.75 169.011719 264.75 165.527344 C 265.871094 164.226563 267.855469 165.527344 268.5 166.839844 C 269.652344 169.183594 270 170.839844 270 170.839844 C 270 170.839844 271.75 167.839844 272.75 169.339844 L 273.75 170.839844 C 273.75 170.839844 275.75 172.089844 277.5 169.339844 C 279.25 166.589844 282 171.839844 282 171.839844 L 284.5 169.089844 C 284.5 169.089844 286.5 169.339844 286.75 171.339844 C 288 169.839844 289 167.589844 289.75 168.589844 L 289.75 165.527344 C 289.75 165.527344 290.25 162.464844 293.25 165.527344 C 296.25 168.589844 296.25 175.839844 296.75 180.589844 C 298.75 181.839844 299.75 183.839844 298.75 186.339844 C 297.75 188.839844 296.5 189.089844 296.25 190.339844 C 296 191.589844 296 197.839844 293.75 200.589844 C 291.5 203.339844 289.75 206.589844 289.75 206.589844 C 289.75 206.589844 289.5 216.589844 290.5 219.339844 C 291.5 222.089844 290 229.089844 285.25 236.589844 C 280.5 244.089844 281.75 245.839844 270.75 247.589844 C 259.75 249.339844 248.148438 250.175781 243.25 253.339844 C 231.25 261.089844 232 268.089844 232 268.089844 C 232 268.089844 235 268.589844 235 271.339844 C 235 274.089844 232.75 279.089844 232.75 279.089844 L 246 303.339844 L 223.5 301.339844 L 219.75 305.339844 L 218 327.589844 L 198.75 314.589844 C 198.75 314.589844 190.25 314.339844 188.75 315.839844 C 187.25 317.339844 176.5 340.339844 176.5 340.339844 L 162.75 317.089844 C 162.75 317.089844 161.304688 316.839844 160.777344 316.089844 C 160.25 315.339844 146.25 315.339844 146.25 315.339844 L 127 335.339844 L 120.25 306.839844 C 120.25 306.839844 111.75 303.589844 110 302.589844 L 82.5 313.839844 L 86.75 288.339844 L 80.5 280.839844 L 54.5 283.339844 L 65.5 261.839844 C 65.5 261.839844 58.25 253.589844 57.5 250.089844 C 53.5 250.339844 32 247.339844 32 247.339844 L 51 227.589844 L 48.75 220.589844 C 48.75 220.589844 47.5 219.589844 46.25 221.589844 C 45 223.589844 26.5 243.589844 14.75 246.589844 C 3 249.589844 11.25 230.089844 11.25 230.089844 C 11.25 230.089844 15.75 218.089844 15.75 193.839844 C 15.75 169.589844 0 152.089844 0 138.339844 C 0 133.996094 3.25 129.839844 3 126.589844 C 2.75 123.339844 0 118.589844 1 115.339844 C 2 112.089844 6.363281 101.347656 18 93.589844 C 20.25 92.089844 19 89.589844 18 87.089844 C 17 84.589844 22.75 83.339844 23.75 82.339844 C 24.75 81.339844 28.25 78.589844 35 77.339844 C 41.75 76.089844 40.5 76.839844 41.75 76.089844 C 43 75.339844 42.5 71.242188 42.5 71.242188 C 42.5 71.242188 53.25 69.648438 60.5 71.242188 C 67.75 72.839844 70.25 74.339844 72.75 74.339844 C 75.25 74.339844 79 68.839844 81 65.339844 C 83 61.839844 86.121094 58.769531 88.058594 58.179688 "/>
</g>
<path style=" stroke:none;fill-rule:nonzero;fill:rgb(100%,100%,100%);fill-opacity:1;" d="M 99.804688 59.183594 C 99.804688 59.183594 94.9375 59.605469 94.9375 53.257813 C 94.9375 46.910156 97.054688 20.25 110.597656 10.304688 C 110.597656 19.617188 112.710938 26.175781 121.175781 35.695313 C 122.234375 42.890625 118.214844 57.28125 107.421875 59.820313 C 106.152344 55.796875 99.171875 43.738281 99.171875 43.738281 C 99.171875 43.738281 100.863281 54.105469 99.804688 59.183594 "/>
<path style=" stroke:none;fill-rule:nonzero;fill:rgb(100%,100%,100%);fill-opacity:1;" d="M 162.226563 80.132813 C 162.226563 80.132813 156.183594 65.566406 174.285156 60.242188 C 177.882813 59.183594 184.171875 62.195313 185.921875 64.050781 C 189.519531 67.859375 189.945313 71.457031 189.945313 71.457031 L 196.925781 71.03125 C 196.925781 71.03125 189.519531 56.007813 174.285156 56.007813 C 159.050781 56.007813 156.300781 69.976563 158.839844 80.765625 C 159.476563 80.554688 162.226563 80.132813 162.226563 80.132813 "/>
<path style=" stroke:none;fill-rule:nonzero;fill:rgb(33.724976%,5.882263%,6.274414%);fill-opacity:1;" d="M 164.339844 79.074219 C 164.339844 79.074219 162.4375 72.300781 165.820313 68.28125 C 169.207031 64.261719 172.59375 63.414063 172.59375 63.414063 C 172.59375 63.414063 171.113281 66.589844 171.957031 68.703125 C 172.804688 70.820313 173.652344 71.667969 176.824219 71.667969 C 179.996094 71.667969 181.691406 67.4375 181.480469 66.800781 C 181.269531 66.164063 180.84375 64.472656 180.84375 64.472656 C 180.84375 64.472656 187.402344 64.894531 188.25 72.089844 C 179.996094 74.207031 172.382813 76.109375 164.339844 79.074219 "/>
<path style=" stroke:none;fill-rule:nonzero;fill:rgb(100%,100%,100%);fill-opacity:1;" d="M 244.957031 39.082031 C 244.957031 39.082031 255.535156 45.640625 257.019531 48.179688 C 258.074219 45.007813 261.671875 33.792969 255.746094 23.847656 C 252.996094 27.867188 254.902344 31.039063 244.957031 39.082031 "/>
<path style=" stroke:none;fill-rule:nonzero;fill:rgb(73.724365%,74.508667%,75.292969%);fill-opacity:1;" d="M 89.5 68.386719 C 89.5 68.386719 88.75 66.089844 89.5 64.839844 C 90.25 63.589844 90.5 61.742188 93.25 63.414063 C 96 65.089844 98 66.839844 101.75 66.839844 C 105.5 66.839844 128.75 60.9375 127.75 36.015625 C 131.5 36.839844 141 29.089844 152.5 27.589844 C 164 26.089844 172.5 32.339844 174.75 33.089844 C 177 33.839844 192.75 42.089844 202.75 42.089844 C 212.75 42.089844 216.75 36.015625 223 36.015625 C 229.25 36.015625 256.75 47.089844 260.75 67.089844 C 247.5 67.089844 234 67.839844 232.25 67.339844 C 230.5 66.839844 229.75 62.339844 228.25 61.839844 C 226.75 61.339844 226.25 60.492188 226.75 63.414063 C 227.25 66.339844 226.5 69.589844 225.5 70.089844 C 224.5 70.589844 221 69.6875 220.5 68.386719 C 220 67.089844 221.25 64.992188 221.75 63.414063 C 222.25 61.839844 222 60.546875 219.75 59.820313 C 217.5 59.089844 215.75 60.492188 215 63.414063 C 214.25 66.339844 212 68.386719 208 68.386719 C 204 68.386719 176.027344 50.089844 176.027344 50.089844 C 176.027344 50.089844 153.484375 43.039063 147.605469 73.464844 C 146.558594 78.246094 149.5 84.589844 149.5 84.589844 C 149.5 84.589844 131.375 90.714844 126.625 100.214844 C 125.875 101.714844 127.75 103.714844 129.875 103.714844 C 132 103.714844 132.875 100.589844 135 101.339844 C 137.125 102.089844 136.5 106.339844 135.25 107.589844 C 134 108.839844 136 109.964844 137.75 110.089844 C 139.5 110.214844 142.625 105.964844 144.5 101.089844 C 146.375 96.214844 150.25 92.839844 152.875 91.464844 C 155.5 90.089844 173.5 81.089844 179.25 79.589844 C 185 78.089844 195.5 75.839844 201.125 75.839844 C 206.75 75.839844 208.375 76.339844 207.625 77.464844 C 206.875 78.589844 203.125 82.089844 202.625 83.214844 C 202.125 84.339844 203.5 85.339844 205.75 84.089844 C 208 82.839844 209.5 78.429688 212.375 79.074219 C 215.25 79.714844 213.625 81.339844 214.75 82.839844 C 215.875 84.339844 218.25 82.441406 218.25 80.765625 C 218.25 79.089844 218.125 79.179688 220.25 79.074219 C 222.375 78.964844 237.5 83.464844 242.75 89.089844 C 241.75 90.839844 239.375 91.964844 240.25 92.714844 C 241.125 93.464844 241.125 94.464844 242.625 94.089844 C 244.125 93.714844 244.5 93.839844 244.875 91.964844 C 245.25 90.089844 245 89.964844 246.125 90.339844 C 247.25 90.714844 257.625 96.214844 257.625 96.214844 C 257.625 96.214844 261.25 97.839844 262.625 96.464844 C 264 95.089844 261.75 93.839844 260.125 93.214844 C 258.5 92.589844 253 90.714844 251.375 90.464844 C 251.375 87.964844 251.5 85.339844 250.875 84.339844 C 250.25 83.339844 249.125 82.589844 248.5 83.714844 C 247.875 84.839844 247.125 85.839844 245.125 85.089844 C 243.125 84.339844 238.75 81.816406 237.75 80.765625 C 236.75 79.714844 237 79.929688 238.375 79.074219 C 239.75 78.214844 241.875 77.339844 241.75 76.839844 C 241.625 76.339844 239.875 75.214844 239.125 74.089844 C 238.375 72.964844 237.375 71.148438 239.375 71.242188 C 241.375 71.339844 249.5 70.964844 251 70.714844 C 252.5 70.464844 256.75 69.773438 257.5 71.242188 C 258.25 72.714844 255.875 74.464844 255.75 75.589844 C 255.625 76.714844 256.375 77.714844 257.875 77.214844 C 259.375 76.714844 268.875 75.589844 273.25 75.839844 C 271 77.589844 271 80.589844 271 82.964844 C 271 85.339844 274.5 89.714844 278.25 90.089844 C 282 90.464844 284.125 90.089844 286.25 90.589844 C 288.375 91.089844 298.125 99.714844 302.125 101.839844 C 306.125 103.964844 309 100.714844 310.625 98.839844 C 312.25 96.964844 312.75 94.464844 314.75 94.214844 C 316.75 93.964844 319.25 93.464844 320 94.839844 C 320.75 96.214844 320.375 96.589844 320 97.714844 C 319.625 98.839844 318.25 98.839844 318.75 99.839844 C 319.25 100.839844 319.375 101.839844 319.75 101.964844 C 320.125 102.089844 320.375 103.214844 319.375 104.089844 C 318.375 104.964844 316.125 107.847656 315.875 110.09375 C 315.625 112.339844 315.625 117.839844 314.5 118.339844 C 313.375 118.839844 310.125 118.964844 308.25 117.589844 C 306.375 116.214844 306.125 113.714844 306.625 112.589844 C 307.125 111.464844 308.375 109.464844 303.25 109.464844 C 298.125 109.464844 299.375 109.714844 296.75 110.839844 C 294.125 111.964844 287 116.089844 282.5 116.964844 C 278 117.839844 272.25 118.6875 263.375 118.6875 C 254.5 118.6875 246.5 117.339844 242 115.589844 C 237.5 113.839844 231.25 110.839844 217.625 110.839844 C 213.25 110.839844 205.039063 110.0625 196.25 117.714844 C 192.375 121.089844 189 123.339844 186.875 123.464844 C 184.75 123.589844 182.375 122.714844 180.75 124.839844 C 179.125 126.964844 171.875 133.964844 170.875 136.589844 C 169.875 139.214844 164.875 145.589844 161.25 160.464844 C 157.625 175.339844 158.875 177.589844 157.875 180.839844 C 156.875 184.089844 155 187.589844 155.125 189.339844 C 155.25 191.089844 156.75 191.464844 157.875 190.464844 C 159 189.464844 160.375 186.089844 162 185.464844 C 163.625 184.839844 162.875 185.839844 162.875 187.089844 C 162.875 188.339844 162.625 193.089844 161.75 194.714844 C 160.875 196.339844 159.875 200.839844 162.375 202.839844 C 164.875 204.839844 167.125 204.214844 169.5 203.589844 C 171.875 202.964844 182.125 199.589844 189.75 199.589844 C 197.375 199.589844 198.5 200.589844 198.875 200.839844 C 199.25 201.089844 198.125 202.339844 199.25 203.589844 C 200.375 204.839844 202.875 205.839844 205.25 206.839844 C 207.625 207.839844 212 210.464844 214.875 211.464844 C 217.75 212.464844 222 213.839844 223.375 213.839844 C 224.75 213.839844 226.375 213.589844 225.375 214.339844 C 224.375 215.089844 213.5 219.839844 212.5 222.214844 C 211.5 224.589844 211.125 228.339844 211.5 230.339844 C 211.875 232.339844 211.5 234.589844 210.375 236.339844 C 209.25 238.089844 207.125 239.089844 205.125 239.589844 C 203.125 240.089844 195.875 241.089844 189.625 242.839844 C 183.375 244.589844 168.25 249.839844 164.125 251.464844 C 160 253.089844 148.375 257.714844 130.625 257.714844 C 112.875 257.714844 104.125 251.714844 104.125 241.839844 C 104.125 238.464844 105.125 238.464844 104.875 236.714844 C 104.625 234.964844 104.75 232.839844 100.25 232.714844 C 95.75 232.589844 78.25 233.589844 78.25 200.464844 C 78.25 174.714844 90.375 162.339844 91.75 161.339844 C 93.125 160.339844 96.375 157.964844 95.5 156.714844 C 94.625 155.464844 93.125 154.089844 91.625 154.589844 C 90.125 155.089844 88.75 155.589844 87.5 151.964844 C 86.25 148.339844 85.375 146.464844 84.25 146.964844 C 83.125 147.464844 81.875 148.714844 82 152.214844 C 82.125 155.714844 82.375 159.214844 81.375 162.214844 C 80.375 165.214844 76.75 171.714844 73.5 173.464844 C 70.25 175.214844 69.5 175.089844 69.5 172.589844 C 69.5 170.089844 71.125 166.839844 71.375 166.089844 C 71.625 165.339844 69.5 164.714844 67.375 167.089844 C 65.25 169.464844 63 172.964844 61.25 178.589844 C 59.5 184.214844 56.875 194.339844 55.5 197.339844 C 54.125 200.339844 47.5 213.839844 39.25 221.839844 C 31 229.839844 18.875 238.964844 15.875 239.839844 C 12.875 240.714844 13 236.214844 14.5 234.589844 C 16 232.964844 30.125 220.214844 35.25 213.339844 C 40.375 206.464844 48.125 193.839844 49.375 188.839844 C 50.625 183.839844 46.5 184.339844 45.625 186.089844 C 44.75 187.839844 43.625 191.089844 42 191.589844 C 40.375 192.089844 42 190.464844 39.125 190.464844 C 36.25 190.464844 37.375 192.214844 36.5 192.464844 C 35.625 192.714844 30.125 191.339844 28.625 192.589844 C 27.125 193.839844 25.875 196.089844 26.125 197.464844 C 26.375 198.839844 27.125 197.964844 26.25 199.964844 C 25.375 201.964844 24.125 202.589844 24.125 202.589844 C 24.125 202.589844 26.375 202.714844 26.75 203.589844 C 27.125 204.464844 27 206.589844 25.5 207.589844 C 24 208.589844 23.125 208.714844 21.75 210.339844 C 20.375 211.964844 19.625 210.589844 19.625 209.089844 C 19.625 207.589844 21.125 200.339844 21.625 196.964844 C 22.125 193.589844 21.875 183.964844 20.75 179.339844 C 19.625 174.714844 17.5 169.214844 13.125 163.839844 C 8.75 158.464844 6.125 148.714844 6.125 138.714844 C 6.125 128.714844 7.25 128.089844 8.75 127.589844 C 10.25 127.089844 10.375 127.589844 12 126.714844 C 13.625 125.839844 13.25 123.339844 11.875 122.339844 C 10.5 121.339844 7.5 119.964844 7.625 118.714844 C 7.75 117.464844 8.25 116.589844 10 116.839844 C 11.75 117.089844 13.375 116.089844 13.375 116.089844 C 13.375 116.089844 13.125 113.089844 12.875 111.464844 C 12.625 109.839844 12.5 105.089844 15 102.714844 C 17.5 100.339844 26.125 93.964844 28.125 92.714844 C 30.125 91.464844 29 90.464844 27.5 89.964844 C 26 89.464844 24.625 88.714844 26.25 86.214844 C 27.875 83.714844 31.75 82.589844 34.875 82.589844 C 38 82.589844 44.25 83.214844 48.125 83.464844 C 52 83.714844 53.25 82.839844 53.375 81.839844 C 53.5 80.839844 52.625 78.589844 53.75 78.589844 C 54.875 78.589844 58.625 78.464844 61.5 78.839844 C 64.375 79.214844 69.625 81.339844 73.125 81.339844 C 76.625 81.339844 78.5 80.964844 81.5 78.714844 C 84.5 76.464844 83.75 74.589844 85.5 74.214844 C 87.25 73.839844 87.75 74.464844 88.75 74.089844 C 89.75 73.714844 90 69.5625 89.5 68.386719 "/>
<path style=" stroke:none;fill-rule:nonzero;fill:rgb(13.699341%,12.199402%,12.5%);fill-opacity:1;" d="M 24.625 115.714844 C 24.625 115.714844 27 109.214844 37.75 101.964844 C 48.5 94.714844 57.25 92.089844 63.625 92.089844 C 70 92.089844 78.125 95.089844 78.5 107.964844 C 78.875 120.839844 76 126.714844 70 133.089844 C 64 139.464844 45.375 150.214844 41.75 153.089844 C 38.125 155.964844 36.25 158.589844 34.875 158.714844 C 33.5 158.839844 32.25 158.214844 33.625 154.089844 C 35 149.964844 40.375 146.714844 43.75 144.214844 C 47.125 141.714844 51.25 139.589844 52.25 138.339844 C 53.25 137.089844 53.375 136.839844 52.875 136.089844 C 52.375 135.339844 53 135.214844 51.875 135.089844 C 50.75 134.964844 51.75 133.089844 52.875 132.339844 C 54 131.589844 61.625 124.339844 62.625 122.339844 C 63.625 120.339844 62 116.089844 61.125 115.089844 C 60.25 114.089844 61 111.714844 57.875 112.964844 C 54.75 114.214844 44 118.714844 42.375 119.589844 C 40.75 120.464844 40.875 119.214844 42.75 117.214844 C 44.625 115.214844 49.25 110.714844 50.625 109.089844 C 52 107.464844 53.375 104.714844 51.875 102.964844 C 50.375 101.214844 46.75 102.464844 44.875 103.714844 C 43 104.964844 27.125 114.589844 26.25 115.589844 C 25.375 116.589844 24.375 117.839844 24.625 115.714844 "/>
<path style=" stroke:none;fill-rule:nonzero;fill:rgb(13.699341%,12.199402%,12.5%);fill-opacity:1;" d="M 112.375 153.964844 C 114.347656 153.472656 115.375 154.589844 116.375 155.839844 C 117.375 157.089844 118.25 158.339844 120.875 158.464844 C 123.5 158.589844 133.75 155.589844 136.125 153.589844 C 138.5 151.589844 154 139.339844 156.125 138.339844 C 158.25 137.339844 157.625 139.214844 156.75 140.589844 C 155.875 141.964844 150.625 150.964844 149.625 154.339844 C 148.625 157.714844 146.5 162.339844 146.5 166.089844 C 146.5 169.839844 147.375 173.964844 146.125 174.464844 C 144.875 174.964844 144.125 174.964844 143.625 173.714844 C 143.125 172.464844 140.875 165.589844 139.875 164.339844 C 138.875 163.089844 137.875 161.714844 135.875 162.089844 C 133.875 162.464844 131 162.589844 126.25 162.589844 C 121.5 162.589844 118.25 162.089844 115.75 159.964844 C 113.25 157.839844 112.25 156.964844 111.75 156.089844 C 111.25 155.214844 111.375 154.214844 112.375 153.964844 "/>
<path style=" stroke:none;fill-rule:nonzero;fill:rgb(13.699341%,12.199402%,12.5%);fill-opacity:1;" d="M 186.5 115.589844 C 186.5 115.589844 187.625 114.714844 187.625 113.964844 C 187.625 113.214844 186.75 112.589844 186.5 111.339844 C 186.25 110.089844 185.625 106.714844 186.875 104.589844 C 188.125 102.464844 195.25 93.339844 199.875 93.339844 C 204.5 93.339844 203.125 96.964844 203 97.964844 C 202.875 98.964844 202.25 99.339844 202.875 98.964844 C 203.5 98.589844 204.25 97.714844 204.625 96.714844 C 205 95.714844 204.125 95.339844 203.875 94.589844 C 203.625 93.839844 204 91.339844 205.5 91.339844 C 207 91.339844 209 91.089844 210.25 92.089844 C 211.5 93.089844 211 93.339844 211.375 94.464844 C 211.75 95.589844 212 96.464844 212.75 96.464844 C 213.5 96.464844 214 96.214844 213.875 95.589844 C 213.75 94.964844 213.375 93.214844 214.125 92.464844 C 214.875 91.714844 215.25 90.589844 216.5 91.089844 C 217.75 91.589844 221.25 93.089844 224.125 93.714844 C 227 94.339844 242.25 101.339844 242.25 101.339844 C 242.25 101.339844 243.125 101.464844 242.375 103.339844 C 241.625 105.214844 241.25 105.589844 241.625 106.714844 C 242 107.839844 243.125 108.839844 243.75 107.839844 C 244.375 106.839844 243.125 105.714844 243.625 104.089844 C 244.125 102.464844 244.625 102.464844 245.125 102.964844 C 245.625 103.464844 254 107.214844 257.125 108.214844 C 260.25 109.214844 267 111.214844 271.75 111.214844 C 276.5 111.214844 279 109.214844 279 109.214844 C 279 109.214844 277.25 109.464844 275.125 109.589844 C 273 109.714844 267.875 109.339844 264.75 108.464844 C 261.625 107.589844 246.25 101.339844 242.125 98.964844 C 238 96.589844 227.199219 91.703125 225.875 91.339844 C 224.5 90.964844 222.75 91.089844 222.75 91.089844 C 222.75 91.089844 221.875 87.464844 223 86.964844 C 224.125 86.464844 229.375 84.964844 229.375 84.964844 C 229.375 84.964844 223.25 84.464844 222 85.339844 C 220.75 86.214844 220.25 87.089844 220.25 88.214844 C 220.25 89.339844 220.375 89.964844 220.375 89.964844 C 220.375 89.964844 215.5 88.964844 214.125 89.214844 C 212.75 89.464844 208.375 88.839844 207.875 88.839844 C 207.375 88.839844 203.75 87.589844 202.25 88.089844 C 200.75 88.589844 197.5 87.839844 197 88.339844 C 196.5 88.839844 195 89.964844 195.25 91.339844 C 195.5 92.714844 195.75 92.839844 194.625 93.214844 C 193.5 93.589844 190.125 94.339844 188.375 96.339844 C 186.625 98.339844 176 109.839844 176 109.839844 C 176 109.839844 167.875 120.589844 166.25 122.839844 C 164.625 125.089844 165.875 126.589844 167.75 125.339844 C 169.625 124.089844 186.5 115.589844 186.5 115.589844 "/>
<path style=" stroke:none;fill-rule:nonzero;fill:rgb(13.699341%,12.199402%,12.5%);fill-opacity:1;" d="M 205 102.902344 C 205 103.695313 204.21875 104.339844 203.25 104.339844 C 202.28125 104.339844 201.5 103.695313 201.5 102.902344 C 201.5 102.109375 202.28125 101.464844 203.25 101.464844 C 204.21875 101.464844 205 102.109375 205 102.902344 "/>
<path style=" stroke:none;fill-rule:nonzero;fill:rgb(13.699341%,12.199402%,12.5%);fill-opacity:1;" d="M 215.609375 101.128906 C 216.074219 102.054688 215.921875 103.066406 215.277344 103.390625 C 214.628906 103.714844 213.726563 103.230469 213.261719 102.300781 C 212.800781 101.375 212.949219 100.363281 213.597656 100.039063 C 214.246094 99.714844 215.148438 100.203125 215.609375 101.128906 "/>
<path style=" stroke:none;fill-rule:nonzero;fill:rgb(13.699341%,12.199402%,12.5%);fill-opacity:1;" d="M 223 97.777344 C 223 98.503906 222.386719 99.089844 221.625 99.089844 C 220.863281 99.089844 220.25 98.503906 220.25 97.777344 C 220.25 97.050781 220.863281 96.464844 221.625 96.464844 C 222.386719 96.464844 223 97.050781 223 97.777344 "/>
<path style=" stroke:none;fill-rule:nonzero;fill:rgb(13.699341%,12.199402%,12.5%);fill-opacity:1;" d="M 234 102.652344 C 234 103.101563 233.410156 103.464844 232.6875 103.464844 C 231.964844 103.464844 231.375 103.101563 231.375 102.652344 C 231.375 102.203125 231.964844 101.839844 232.6875 101.839844 C 233.410156 101.839844 234 102.203125 234 102.652344 "/>
<path style=" stroke:none;fill-rule:nonzero;fill:rgb(13.699341%,12.199402%,12.5%);fill-opacity:1;" d="M 236.625 88.152344 C 236.625 88.945313 235.980469 89.589844 235.1875 89.589844 C 234.394531 89.589844 233.75 88.945313 233.75 88.152344 C 233.75 87.359375 234.394531 86.714844 235.1875 86.714844 C 235.980469 86.714844 236.625 87.359375 236.625 88.152344 "/>
<path style=" stroke:none;fill-rule:nonzero;fill:rgb(13.699341%,12.199402%,12.5%);fill-opacity:1;" d="M 245.75 80.402344 C 245.75 81.128906 245.160156 81.714844 244.4375 81.714844 C 243.714844 81.714844 243.125 81.128906 243.125 80.402344 C 243.125 79.675781 243.714844 79.089844 244.4375 79.089844 C 245.160156 79.089844 245.75 79.675781 245.75 80.402344 "/>
<path style=" stroke:none;fill-rule:nonzero;fill:rgb(13.699341%,12.199402%,12.5%);fill-opacity:1;" d="M 255.125 99.652344 C 255.125 100.171875 254.703125 100.589844 254.1875 100.589844 C 253.671875 100.589844 253.25 100.171875 253.25 99.652344 C 253.25 99.136719 253.671875 98.714844 254.1875 98.714844 C 254.703125 98.714844 255.125 99.136719 255.125 99.652344 "/>
<path style=" stroke:none;fill-rule:nonzero;fill:rgb(73.724365%,74.508667%,75.292969%);fill-opacity:1;" d="M 279.222656 73.777344 C 279.363281 72.257813 279.410156 72.855469 281.441406 72.484375 C 283.476563 72.113281 294.574219 71.371094 301.230469 71.1875 C 307.890625 71.003906 311.21875 71.929688 313.4375 72.667969 C 315.65625 73.40625 316.394531 75.070313 314.363281 75.996094 C 312.328125 76.921875 306.964844 79.882813 301.414063 79.882813 C 295.867188 79.882813 290.320313 77.105469 289.210938 76.183594 C 288.101563 75.257813 284.769531 75.070313 284.21875 75.996094 C 283.660156 76.921875 282.738281 77.105469 281.441406 77.105469 C 280.148438 77.105469 279.039063 75.8125 279.222656 73.777344 "/>
<path style=" stroke:none;fill-rule:nonzero;fill:rgb(100%,100%,100%);fill-opacity:1;" d="M 179.691406 66.679688 C 179.691406 68.601563 178.132813 70.160156 176.210938 70.160156 C 174.289063 70.160156 172.730469 68.601563 172.730469 66.679688 C 172.730469 64.757813 174.289063 63.199219 176.210938 63.199219 C 178.132813 63.199219 179.691406 64.757813 179.691406 66.679688 "/>
<path style=" stroke:none;fill-rule:nonzero;fill:rgb(13.699341%,12.199402%,12.5%);fill-opacity:1;" d="M 228.367188 57.132813 C 226.972656 56.203125 228.921875 54.359375 229.476563 53.988281 C 230.03125 53.621094 230.585938 52.511719 231.324219 53.433594 C 232.0625 54.359375 231.695313 54.914063 231.140625 55.839844 C 230.585938 56.761719 229.476563 57.875 228.367188 57.132813 "/>
<path style=" stroke:none;fill-rule:nonzero;fill:rgb(13.699341%,12.199402%,12.5%);fill-opacity:1;" d="M 210.058594 51.769531 C 212.089844 51.769531 214.867188 53.433594 216.902344 54.175781 C 218.933594 54.914063 220.96875 53.804688 220.042969 51.585938 C 219.121094 49.367188 215.605469 47.332031 212.277344 47.332031 C 208.949219 47.332031 205.988281 48.257813 204.324219 49.734375 C 202.660156 51.214844 200.8125 51.957031 201.921875 53.066406 C 203.03125 54.175781 204.324219 55.285156 204.878906 54.359375 C 205.433594 53.433594 207.46875 51.769531 210.058594 51.769531 "/>
<path style=" stroke:none;fill-rule:nonzero;fill:rgb(13.699341%,12.199402%,12.5%);fill-opacity:1;" d="M 169.1875 41.230469 C 171.222656 41.230469 175.289063 43.078125 178.25 43.816406 C 181.207031 44.558594 183.242188 44.925781 183.796875 44.558594 C 184.351563 44.1875 182.871094 42.894531 181.578125 41.597656 C 180.285156 40.304688 174.550781 35.125 167.339844 35.125 C 160.125 35.125 159.570313 37.898438 159.570313 40.675781 C 159.570313 43.449219 160.679688 43.449219 162.898438 43.449219 C 165.117188 43.449219 167.335938 41.230469 169.1875 41.230469 "/>
<path style=" stroke:none;fill-rule:nonzero;fill:rgb(13.699341%,12.199402%,12.5%);fill-opacity:1;" d="M 132.9375 67.488281 C 133.496094 69.339844 132.382813 70.449219 132.199219 72.300781 C 132.015625 74.148438 132.570313 81.914063 132.015625 83.210938 C 131.460938 84.503906 127.390625 86.722656 127.019531 87.277344 C 126.652344 87.832031 123.324219 89.3125 121.472656 89.683594 C 119.625 90.050781 118.144531 88.386719 118.328125 87.09375 C 118.515625 85.800781 119.066406 85.242188 120.734375 85.058594 C 122.398438 84.875 124.800781 83.210938 124.800781 83.210938 C 124.800781 83.210938 124.246094 77.476563 125.726563 73.964844 C 127.207031 70.449219 128.128906 67.859375 130.535156 67.121094 C 132.9375 66.382813 132.9375 67.488281 132.9375 67.488281 "/>
<path style=" stroke:none;fill-rule:nonzero;fill:rgb(13.699341%,12.199402%,12.5%);fill-opacity:1;" d="M 88.554688 210.628906 C 87.625 207.535156 88.183594 201.753906 88.183594 199.347656 C 88.183594 196.945313 86.335938 193.984375 84.117188 197.871094 C 81.898438 201.753906 82.453125 206.007813 82.820313 208.410156 C 83.191406 210.816406 85.226563 215.808594 88.183594 217.101563 C 91.144531 218.398438 91.699219 218.398438 91.699219 218.398438 C 91.699219 218.398438 94.65625 220.0625 97.429688 218.582031 C 100.207031 217.101563 97.0625 214.328125 95.214844 214.328125 C 93.363281 214.328125 89.664063 214.328125 88.554688 210.628906 "/>
<path style=" stroke:none;fill-rule:nonzero;fill:rgb(13.699341%,12.199402%,12.5%);fill-opacity:1;" d="M 150.507813 206.746094 C 150.234375 201.390625 152.726563 198.238281 154.390625 196.203125 C 156.054688 194.171875 157.535156 193.429688 157.535156 194.910156 C 157.535156 196.390625 155.6875 200.457031 155.6875 204.34375 C 155.6875 208.226563 157.722656 211.925781 162.714844 212.292969 C 167.707031 212.664063 172.515625 208.78125 174.363281 208.597656 C 176.214844 208.410156 177.140625 208.597656 175.105469 210.628906 C 173.070313 212.664063 168.261719 218.210938 163.085938 218.210938 C 157.90625 218.210938 150.878906 213.960938 150.507813 206.746094 "/>
<path style=" stroke:none;fill-rule:nonzero;fill:rgb(13.699341%,12.199402%,12.5%);fill-opacity:1;" d="M 109.820313 238.371094 C 109.992188 236.492188 111.488281 235.597656 112.226563 236.335938 C 112.964844 237.074219 113.152344 239.480469 114.445313 241.328125 C 115.738281 243.179688 119.070313 246.324219 122.582031 247.0625 C 126.097656 247.804688 134.234375 249.097656 135.898438 249.28125 C 137.5625 249.46875 129.796875 249.652344 125.726563 249.652344 C 121.65625 249.652344 115.230469 249.050781 112.410156 245.582031 C 110.007813 242.625 109.636719 240.40625 109.820313 238.371094 "/>
<path style=" stroke:none;fill-rule:nonzero;fill:rgb(73.724365%,74.508667%,75.292969%);fill-opacity:1;" d="M 218.75 238.554688 C 218.324219 236.90625 219.859375 235.96875 221.707031 234.671875 C 223.558594 233.378906 223.371094 231.898438 221.523438 231.714844 C 219.675781 231.527344 218.195313 230.050781 218.5625 229.125 C 218.933594 228.199219 223.1875 218.027344 231.878906 215.625 C 240.570313 213.21875 243.347656 211.738281 245.933594 211 C 248.523438 210.261719 250.1875 211 252.40625 210.628906 C 254.628906 210.261719 257.398438 210.261719 258.878906 209.152344 C 260.359375 208.039063 261.46875 207.855469 262.765625 207.855469 C 264.058594 207.855469 265.535156 208.964844 266.277344 209.519531 C 267.019531 210.074219 268.496094 208.410156 268.867188 206.378906 C 269.234375 204.34375 269.792969 204.15625 271.824219 204.15625 C 273.859375 204.15625 282.183594 206.191406 283.847656 208.410156 C 285.511719 210.628906 285.695313 215.253906 285.882813 217.84375 C 286.066406 220.433594 285.882813 224.5 284.769531 225.609375 C 283.660156 226.71875 281.996094 225.980469 281.996094 225.054688 C 281.996094 224.132813 280.703125 219.324219 279.40625 218.769531 C 278.113281 218.214844 277.003906 219.507813 277.558594 221.910156 C 278.113281 224.316406 277.742188 228.015625 277.742188 229.308594 C 277.742188 230.605469 275.894531 231.527344 274.046875 230.972656 C 272.195313 230.417969 271.269531 230.234375 271.457031 232.824219 C 271.640625 235.410156 272.382813 236.335938 269.421875 237.816406 C 266.464844 239.296875 264.796875 240.589844 262.765625 240.035156 C 260.730469 239.480469 259.617188 237.445313 259.25 236.890625 C 258.882813 236.335938 257.402344 237.816406 255.550781 239.296875 C 253.703125 240.773438 250.003906 242.070313 247.96875 242.441406 C 245.933594 242.808594 243.160156 240.960938 243.160156 239.109375 C 243.160156 237.261719 244.824219 234.304688 244.824219 233.007813 C 244.824219 231.714844 243.898438 229.863281 243.347656 231.160156 C 242.789063 232.453125 235.023438 244.105469 232.0625 245.027344 C 229.105469 245.953125 220.226563 244.289063 218.75 238.554688 "/>
<path style=" stroke:none;fill-rule:nonzero;fill:rgb(73.724365%,74.508667%,75.292969%);fill-opacity:1;" d="M 215.789063 204.710938 C 215.550781 203.148438 218.9375 203.972656 220.785156 204.710938 C 222.632813 205.453125 226.699219 204.527344 229.105469 204.15625 C 231.511719 203.785156 249.078125 198.054688 253.148438 196.019531 C 257.214844 193.984375 265.167969 191.210938 267.941406 191.765625 C 270.714844 192.320313 272.195313 192.875 270.902344 193.984375 C 269.605469 195.097656 261.46875 198.238281 257.585938 200.089844 C 253.703125 201.9375 235.394531 208.226563 231.695313 208.597656 C 227.996094 208.964844 222.445313 208.78125 220.226563 208.039063 C 218.011719 207.300781 216.160156 207.117188 215.789063 204.710938 "/>
<path style=" stroke:none;fill-rule:nonzero;fill:rgb(73.724365%,74.508667%,75.292969%);fill-opacity:1;" d="M 272.9375 191.582031 C 272.191406 189.847656 276.632813 188.621094 279.59375 188.621094 C 282.550781 188.621094 284.953125 188.992188 287.546875 189.363281 C 290.132813 189.730469 292.910156 189.363281 293.832031 191.027344 C 294.757813 192.691406 294.203125 193.984375 293.277344 195.464844 C 292.355469 196.945313 291.796875 197.683594 290.320313 196.574219 C 288.839844 195.464844 288.839844 194.355469 287.175781 194.355469 C 285.511719 194.355469 282.503906 194.417969 280.519531 194.539063 C 277.558594 194.726563 274.046875 194.171875 272.9375 191.582031 "/>
<path style=" stroke:none;fill-rule:nonzero;fill:rgb(100%,100%,100%);fill-opacity:1;" d="M 229.660156 286.640625 L 231.511719 283.308594 L 241.679688 300.878906 L 223.742188 298.476563 C 223.742188 298.476563 225.960938 291.449219 228.550781 291.078125 C 231.140625 290.707031 234.285156 293.851563 234.285156 293.851563 L 237.429688 296.808594 "/>
<path style=" stroke:none;fill-rule:nonzero;fill:rgb(100%,100%,100%);fill-opacity:1;" d="M 204.324219 300.324219 C 204.324219 300.324219 206.730469 297.363281 210.980469 297.363281 C 215.234375 297.363281 216.898438 299.398438 216.898438 299.398438 L 215.234375 322.515625 L 198.589844 308.644531 C 198.589844 308.644531 198.632813 303.015625 200.996094 302.542969 C 202.84375 304.023438 211.535156 316.414063 211.535156 316.414063 L 207.097656 306.054688 L 207.097656 299.953125 "/>
<path style=" stroke:none;fill-rule:nonzero;fill:rgb(100%,100%,100%);fill-opacity:1;" d="M 172.699219 308.089844 C 172.699219 308.089844 175.289063 306.242188 180.097656 307.167969 C 184.90625 308.089844 185.460938 310.679688 185.460938 310.679688 L 176.027344 332.132813 L 165.117188 313.269531 C 165.117188 313.269531 166.414063 309.753906 169.003906 309.199219 C 170.851563 313.453125 175.289063 325.289063 175.289063 325.289063 C 175.289063 325.289063 173.992188 317.523438 174.734375 314.378906 C 175.472656 311.234375 176.214844 308.832031 176.214844 308.832031 "/>
<path style=" stroke:none;fill-rule:nonzero;fill:rgb(100%,100%,100%);fill-opacity:1;" d="M 134.234375 304.207031 C 134.234375 304.207031 138.671875 304.023438 141.445313 306.425781 C 144.21875 308.832031 144.589844 310.496094 143.851563 311.421875 C 143.109375 312.34375 128.871094 328.433594 128.871094 328.433594 L 125.542969 306.609375 C 125.542969 306.609375 127.761719 303.839844 130.164063 304.394531 C 129.796875 307.167969 129.609375 320.851563 129.609375 320.851563 C 129.609375 320.851563 132.199219 312.714844 133.863281 310.3125 C 135.527344 307.90625 136.824219 306.058594 136.824219 306.058594 "/>
<path style=" stroke:none;fill-rule:nonzero;fill:rgb(100%,100%,100%);fill-opacity:1;" d="M 99.835938 287.933594 C 99.835938 287.933594 103.164063 287.933594 105.753906 292 C 108.34375 296.070313 107.601563 297.550781 107.601563 297.550781 L 87.074219 308.277344 L 91.144531 286.640625 C 91.144531 286.640625 93.363281 286.085938 95.398438 287.378906 C 94.289063 289.414063 90.035156 302.730469 90.035156 302.730469 C 90.035156 302.730469 95.027344 291.816406 98.539063 291.449219 C 102.054688 291.078125 101.683594 289.96875 101.683594 289.96875 "/>
<path style=" stroke:none;fill-rule:nonzero;fill:rgb(100%,100%,100%);fill-opacity:1;" d="M 79.308594 263.890625 C 79.308594 263.890625 81.898438 265.371094 83.007813 269.625 C 84.117188 273.878906 83.007813 275.359375 83.007813 275.359375 L 59.890625 279.980469 L 70.246094 260.5625 C 70.246094 260.5625 73.574219 260.007813 75.238281 262.042969 C 71.722656 264.261719 63.957031 275.914063 63.957031 275.914063 C 63.957031 275.914063 71.355469 269.808594 74.5 268.886719 C 77.644531 267.960938 80.046875 267.035156 80.046875 267.035156 "/>
<path style=" stroke:none;fill-rule:nonzero;fill:rgb(100%,100%,100%);fill-opacity:1;" d="M 63.03125 235.042969 C 63.03125 235.042969 64.511719 237.445313 64.328125 241.332031 C 64.140625 245.214844 61.925781 247.804688 61.925781 247.804688 L 39.546875 244.289063 L 55.082031 229.492188 C 55.082031 229.492188 57.671875 229.121094 59.335938 231.34375 C 57.484375 232.636719 45.28125 241.699219 45.28125 241.699219 C 45.28125 241.699219 53.972656 237.445313 56.191406 237.632813 C 58.410156 237.816406 62.664063 237.445313 62.664063 237.445313 "/>
<path style=" stroke:none;fill-rule:nonzero;fill:rgb(33.724976%,5.882263%,6.274414%);fill-opacity:1;" d="M 54.527344 223.578125 C 54.527344 223.578125 53.785156 211.925781 56.746094 208.042969 C 59.703125 204.15625 61.738281 199.902344 62.664063 199.71875 C 63.589844 199.535156 63.773438 201.753906 64.144531 203.234375 C 64.511719 204.714844 70.613281 230.601563 79.121094 244.660156 C 87.628906 258.714844 102.378906 286.496094 144.960938 294.777344 C 151.617188 296.070313 187.03125 300.488281 208.207031 285.714844 C 224.113281 274.621094 228.921875 269.257813 228.921875 269.257813 C 228.921875 269.257813 231.53125 268.6875 232.433594 270.367188 C 235.023438 275.175781 220.96875 295.515625 220.96875 295.515625 L 217.640625 295.332031 C 217.640625 295.332031 209.871094 290.15625 204.140625 294.777344 C 198.40625 299.398438 196.1875 301.433594 195.445313 307.722656 C 192.304688 307.90625 189.34375 307.90625 189.34375 307.90625 C 189.34375 307.90625 185.828125 300.140625 174.921875 301.0625 C 164.007813 301.988281 160.679688 312.347656 160.679688 312.347656 L 151.617188 311.976563 C 151.617188 311.976563 148.289063 302.914063 138.488281 299.769531 C 128.6875 296.625 120.363281 303.46875 120.363281 303.46875 L 112.226563 300.324219 C 112.226563 300.324219 114.445313 293.296875 107.417969 285.898438 C 100.390625 278.503906 88.183594 281.460938 88.183594 281.460938 L 85.78125 279.796875 C 85.78125 279.796875 90.132813 268.984375 83.007813 261.859375 C 74.128906 252.980469 64.511719 255.941406 64.511719 255.941406 L 63.21875 252.242188 C 63.21875 252.242188 69.335938 250.835938 69.507813 239.480469 C 69.691406 227.089844 57.855469 223.578125 54.527344 223.578125 "/>
<path style=" stroke:none;fill-rule:nonzero;fill:rgb(73.724365%,74.508667%,75.292969%);fill-opacity:1;" d="M 81.527344 239.480469 C 82.09375 236.925781 83.5625 236.890625 85.964844 237.445313 C 88.371094 238.003906 89.847656 239.296875 93.546875 239.296875 C 97.246094 239.296875 98.539063 238.742188 98.726563 241.332031 C 98.910156 243.917969 100.390625 250.578125 105.382813 255.199219 C 110.378906 259.824219 112.410156 266.296875 134.417969 266.296875 C 156.425781 266.296875 164.746094 259.824219 164.746094 259.824219 C 164.746094 259.824219 179.171875 253.535156 182.871094 252.613281 C 186.570313 251.6875 187.3125 250.207031 190.824219 250.207031 C 194.339844 250.207031 194.339844 252.242188 194.339844 254.277344 C 194.339844 256.308594 192.117188 257.789063 194.339844 258.714844 C 196.558594 259.636719 198.222656 260.007813 199.144531 258.160156 C 200.070313 256.308594 204.324219 252.613281 206.359375 251.132813 C 208.394531 249.652344 210.425781 247.617188 210.980469 250.023438 C 211.535156 252.425781 211.167969 254.277344 210.796875 255.386719 C 210.425781 256.496094 210.425781 257.605469 210.425781 257.605469 C 210.425781 257.605469 212.09375 256.679688 213.757813 255.199219 C 215.421875 253.71875 217.453125 251.871094 217.640625 254.277344 C 217.824219 256.679688 216.714844 258.34375 216.160156 259.824219 C 215.605469 261.304688 214.492188 262.78125 215.050781 263.152344 C 215.605469 263.523438 216.898438 263.335938 218.75 260.378906 C 220.597656 257.417969 223.1875 255.753906 225.960938 255.386719 C 228.734375 255.015625 229.476563 256.496094 227.625 257.976563 C 225.777344 259.453125 224.296875 260.007813 224.296875 261.671875 C 224.296875 263.335938 224.484375 264.261719 224.113281 265.1875 C 223.742188 266.113281 223.003906 266.667969 221.523438 267.40625 C 220.042969 268.144531 217.640625 270.179688 217.640625 270.179688 C 217.640625 270.179688 213.757813 270.917969 213.199219 271.105469 C 212.648438 271.289063 209.871094 271.84375 209.871094 271.84375 C 209.871094 271.84375 206.359375 276.652344 204.324219 278.132813 C 202.289063 279.613281 198.777344 283.125 198.035156 283.679688 C 197.296875 284.234375 193.96875 286.085938 194.523438 284.050781 C 195.078125 282.015625 199.515625 274.25 202.105469 272.398438 C 204.695313 270.550781 206.914063 265.742188 206.914063 265.742188 C 206.914063 265.742188 205.988281 263.152344 204.695313 265.742188 C 203.398438 268.332031 182.871094 288.671875 181.023438 289.785156 C 178.0625 289.230469 176.769531 286.824219 173.253906 289.785156 C 169.742188 292.742188 167.890625 294.40625 166.78125 292.742188 C 165.671875 291.078125 166.230469 287.75 165.117188 287.195313 C 164.007813 286.640625 163.824219 288.121094 162.160156 288.671875 C 160.492188 289.230469 158.644531 287.933594 157.90625 286.824219 C 157.164063 285.714844 154.207031 284.976563 154.207031 284.976563 L 151.800781 283.496094 C 151.800781 283.496094 151.617188 284.234375 150.691406 286.269531 C 149.769531 288.304688 146.441406 289.042969 145.699219 289.785156 C 144.960938 290.523438 142.554688 290.152344 142.1875 289.414063 C 141.816406 288.671875 139.042969 285.160156 139.042969 285.160156 C 139.042969 285.160156 137.191406 284.976563 136.082031 284.976563 C 134.972656 284.976563 130.90625 282.941406 130.90625 282.941406 C 130.90625 282.941406 129.609375 281.644531 128.871094 282.386719 C 128.132813 283.125 127.207031 283.867188 126.652344 284.605469 C 126.097656 285.34375 123.507813 284.789063 123.507813 284.789063 C 123.507813 284.789063 116.851563 282.199219 116.109375 279.980469 C 115.371094 277.761719 116.480469 275.359375 115.925781 274.617188 C 115.371094 273.878906 113.519531 273.136719 112.964844 273.136719 C 112.410156 273.136719 111.300781 271.84375 111.300781 271.289063 C 111.300781 270.734375 112.042969 268.703125 112.042969 267.960938 C 112.042969 267.21875 110.378906 265.554688 109.636719 267.40625 C 108.898438 269.253906 106.863281 272.585938 105.015625 271.105469 C 103.164063 269.625 101.683594 266.851563 101.683594 266.851563 C 101.683594 266.851563 99.28125 266.480469 98.910156 264.632813 C 98.539063 262.785156 98.726563 260.933594 98.539063 260.378906 C 98.355469 259.824219 97.429688 259.085938 96.320313 259.085938 C 95.214844 259.085938 94.472656 259.453125 93.363281 259.269531 C 92.253906 259.085938 92.621094 256.125 92.808594 253.90625 C 92.992188 251.6875 92.992188 248.171875 92.4375 247.0625 C 91.882813 245.953125 91.144531 245.398438 89.847656 246.695313 C 88.554688 247.988281 87.261719 246.878906 87.261719 246.878906 C 87.261719 246.878906 87.074219 243.734375 86.335938 242.996094 C 85.597656 242.253906 84.671875 241.882813 83.5625 241.882813 C 82.453125 241.882813 81.15625 241.144531 81.527344 239.480469 "/>
<path style=" stroke:none;fill-rule:nonzero;fill:rgb(59.606934%,32.548523%,34.117126%);fill-opacity:1;" d="M 190.980469 129.441406 C 190.980469 129.441406 194.496094 126.511719 197.621094 123.972656 C 200.746094 121.433594 205.238281 119.089844 206.414063 119.28125 C 207.585938 119.480469 206.414063 121.628906 206.414063 121.628906 C 206.414063 121.628906 205.4375 126.511719 206.605469 125.144531 C 207.777344 123.773438 208.753906 120.847656 209.730469 119.867188 C 210.710938 118.894531 211.878906 117.722656 213.050781 118.503906 C 214.226563 119.28125 213.835938 119.867188 215.394531 119.480469 C 216.960938 119.089844 218.328125 117.722656 220.085938 117.722656 C 221.84375 117.722656 223.601563 119.675781 224.96875 121.039063 C 226.335938 122.40625 227.507813 124.167969 227.507813 124.167969 C 227.507813 124.167969 226.53125 121.234375 226.921875 120.453125 C 227.3125 119.675781 229.265625 119.480469 230.632813 119.867188 C 232 120.261719 235.90625 120.847656 237.859375 121.433594 C 239.8125 122.019531 245.28125 123.1875 246.453125 123.773438 C 247.625 124.363281 248.601563 125.339844 248.601563 125.339844 C 248.601563 125.339844 247.234375 125.339844 244.890625 126.121094 C 242.546875 126.902344 240.007813 127.292969 238.640625 128.269531 C 237.273438 129.246094 236.101563 130.222656 234.734375 129.832031 C 233.367188 129.441406 231.023438 127.097656 229.851563 127.097656 C 228.679688 127.097656 227.703125 128.074219 226.140625 127.683594 C 224.578125 127.292969 224.382813 126.511719 223.015625 127.878906 C 221.648438 129.246094 220.28125 127.097656 220.28125 127.097656 L 218.523438 124.363281 C 218.523438 124.363281 216.960938 125.339844 217.9375 126.316406 C 218.914063 127.292969 218.71875 128.464844 218.71875 128.464844 C 218.71875 128.464844 215.589844 127.683594 213.636719 127.488281 C 211.6875 127.292969 207.976563 127.097656 206.414063 128.269531 C 204.851563 129.441406 204.261719 131.003906 204.261719 131.003906 C 204.261719 131.003906 202.3125 131.589844 201.527344 131.003906 C 200.746094 130.417969 200.355469 129.636719 200.355469 129.636719 C 200.355469 129.636719 196.839844 126.703125 190.980469 129.441406 "/>
<path style=" stroke:none;fill-rule:nonzero;fill:rgb(100%,100%,100%);fill-opacity:1;" d="M 234.539063 143.113281 C 234.539063 143.113281 234.148438 145.847656 235.90625 147.800781 C 237.664063 149.753906 240.984375 150.925781 240.984375 150.925781 C 240.984375 150.925781 241.375 149.949219 241.375 148.972656 C 241.375 147.996094 242.351563 144.089844 242.351563 144.089844 C 242.351563 144.089844 239.8125 143.308594 239.03125 143.894531 C 238.25 144.480469 238.835938 147.214844 238.835938 147.214844 C 238.835938 147.214844 236.882813 146.628906 236.101563 145.457031 "/>
<path style=" stroke:none;fill-rule:nonzero;fill:rgb(100%,100%,100%);fill-opacity:1;" d="M 244.109375 145.457031 C 244.109375 145.457031 243.523438 144.480469 244.304688 144.480469 C 245.085938 144.480469 245.671875 142.917969 245.867188 142.136719 C 246.0625 141.355469 245.867188 139.988281 246.84375 139.207031 C 247.820313 138.425781 248.210938 139.597656 248.210938 140.183594 C 248.210938 140.769531 248.015625 146.628906 248.015625 146.628906 "/>
<path style=" stroke:none;fill-rule:nonzero;fill:rgb(100%,100%,100%);fill-opacity:1;" d="M 250.359375 139.597656 C 250.359375 139.597656 251.726563 141.355469 253.09375 142.722656 C 254.464844 144.089844 256.804688 144.675781 256.804688 144.675781 C 256.804688 144.675781 257.976563 140.769531 257.976563 139.207031 C 257.976563 137.644531 257.195313 136.863281 257.195313 136.863281 L 256.414063 138.035156 C 256.414063 138.035156 256.414063 139.988281 255.828125 140.183594 C 255.242188 140.378906 252.898438 140.574219 252.898438 140.574219 "/>
<path style=" stroke:none;fill-rule:nonzero;fill:rgb(100%,100%,100%);fill-opacity:1;" d="M 260.515625 133.933594 C 260.3125 131.902344 264.035156 129.050781 266.574219 129.050781 C 269.113281 129.050781 273.410156 131.199219 273.410156 136.082031 C 273.410156 140.964844 267.742188 150.339844 265.007813 151.316406 C 262.273438 152.292969 264.03125 147.605469 264.03125 147.605469 C 264.03125 147.605469 262.859375 140.964844 262.078125 139.597656 C 261.296875 138.230469 260.710938 135.886719 260.515625 133.933594 "/>
<path style=" stroke:none;fill-rule:nonzero;fill:rgb(100%,100%,100%);fill-opacity:1;" d="M 301.824219 133.511719 C 301.636719 131.625 305.09375 128.96875 307.453125 128.96875 C 309.8125 128.96875 313.808594 130.96875 313.808594 135.507813 C 313.808594 140.046875 308.542969 148.761719 306 149.671875 C 303.460938 150.578125 305.09375 146.21875 305.09375 146.21875 C 305.09375 146.21875 304.003906 140.046875 303.277344 138.777344 C 302.550781 137.503906 302.007813 135.324219 301.824219 133.511719 "/>
<path style=" stroke:none;fill-rule:nonzero;fill:rgb(100%,100%,100%);fill-opacity:1;" d="M 277.117188 129.246094 C 277.613281 128.257813 277.703125 127.878906 279.265625 128.269531 C 280.828125 128.660156 281.609375 128.660156 282.003906 130.613281 C 282.390625 132.566406 279.070313 135.886719 279.070313 135.886719 C 279.070313 135.886719 279.070313 133.933594 278.097656 132.761719 C 277.117188 131.589844 276.726563 130.027344 277.117188 129.246094 "/>
<path style=" stroke:none;fill-rule:nonzero;fill:rgb(100%,100%,100%);fill-opacity:1;" d="M 284.152344 128.269531 C 284.644531 127.28125 284.738281 126.902344 286.300781 127.289063 C 287.863281 127.683594 288.644531 127.683594 289.035156 129.636719 C 289.425781 131.589844 286.105469 134.910156 286.105469 134.910156 C 286.105469 134.910156 286.105469 132.957031 285.128906 131.785156 C 284.152344 130.613281 283.761719 129.050781 284.152344 128.269531 "/>
<path style=" stroke:none;fill-rule:nonzero;fill:rgb(100%,100%,100%);fill-opacity:1;" d="M 290.207031 127.683594 C 290.699219 126.695313 290.792969 126.316406 292.355469 126.703125 C 293.917969 127.097656 294.699219 127.097656 295.089844 129.050781 C 295.480469 131.003906 292.160156 134.324219 292.160156 134.324219 C 292.160156 134.324219 292.160156 132.371094 291.183594 131.199219 C 290.207031 130.027344 289.816406 128.464844 290.207031 127.683594 "/>
<path style=" stroke:none;fill-rule:nonzero;fill:rgb(100%,100%,100%);fill-opacity:1;" d="M 297.042969 127.683594 C 297.535156 126.695313 297.628906 126.316406 299.191406 126.703125 C 300.753906 127.097656 301.535156 127.097656 301.925781 129.050781 C 302.316406 131.003906 298.996094 134.324219 298.996094 134.324219 C 298.996094 134.324219 298.996094 132.371094 298.019531 131.199219 C 297.042969 130.027344 296.652344 128.464844 297.042969 127.683594 "/>
<path style=" stroke:none;fill-rule:nonzero;fill:rgb(100%,100%,100%);fill-opacity:1;" d="M 178.871094 138.816406 C 178.003906 136.621094 181.996094 135.496094 184.730469 134.519531 C 187.464844 133.542969 188.832031 134.324219 190.589844 133.933594 C 192.351563 133.542969 192.738281 132.371094 195.085938 132.371094 C 197.429688 132.371094 198.402344 133.738281 198.402344 133.738281 C 198.402344 133.738281 196.257813 138.816406 198.015625 142.136719 C 195.085938 141.941406 190.785156 140.574219 190.394531 139.988281 C 190.003906 139.402344 189.808594 145.457031 189.808594 145.457031 C 189.808594 145.457031 182.191406 147.214844 178.871094 138.816406 "/>
<path style=" stroke:none;fill-rule:nonzero;fill:rgb(100%,100%,100%);fill-opacity:1;" d="M 206.410156 132.566406 C 206.410156 132.566406 207.976563 130.613281 211.296875 130.613281 C 214.617188 130.613281 217.351563 131.78125 217.742188 133.152344 C 218.132813 134.519531 215.984375 135.300781 216.375 136.667969 C 216.765625 138.035156 216.765625 140.769531 216.765625 140.769531 C 216.765625 140.769531 209.535156 140.964844 206.410156 132.566406 "/>
<path style=" stroke:none;fill-rule:nonzero;fill:rgb(100%,100%,100%);fill-opacity:1;" d="M 229.65625 138.621094 C 229.65625 138.621094 222.820313 135.300781 223.015625 131.980469 C 223.210938 128.660156 231.609375 131.003906 231.609375 131.003906 L 232.78125 132.761719 C 232.78125 132.761719 232.78125 132.957031 231.609375 134.128906 C 230.4375 135.300781 229.265625 137.449219 229.65625 138.621094 "/>
<path style=" stroke:none;fill-rule:nonzero;fill:rgb(33.724976%,5.882263%,6.274414%);fill-opacity:1;" d="M 171.644531 171.042969 C 171.746094 166.339844 170.863281 160.496094 179.847656 157.566406 C 188.832031 154.636719 197.230469 157.566406 199.769531 157.566406 C 202.3125 157.566406 208.953125 159.324219 210.515625 160.300781 C 212.078125 161.277344 218.132813 169.089844 219.890625 169.871094 C 221.648438 170.652344 221.257813 169.480469 219.695313 168.113281 C 218.132813 166.746094 212.660156 162.058594 214.8125 160.105469 C 216.960938 158.152344 229.070313 161.277344 233.757813 163.621094 C 238.445313 165.964844 249.1875 171.433594 252.703125 178.660156 C 256.21875 185.890625 242.9375 183.542969 241.570313 180.222656 C 240.203125 176.902344 240.398438 175.339844 238.835938 175.339844 C 237.273438 175.339844 232.976563 178.269531 231.609375 180.613281 C 230.242188 182.960938 230.242188 184.324219 228.289063 184.324219 C 226.335938 184.324219 221.257813 183.347656 221.257813 181.980469 C 221.257813 180.613281 220.867188 173.386719 217.9375 173.777344 C 215.003906 174.167969 207.585938 178.855469 206.214844 181.394531 C 204.066406 181.199219 202.703125 179.054688 202.503906 177.488281 C 202.3125 175.925781 198.988281 172.605469 196.253906 173.386719 C 193.519531 174.167969 191.371094 172.800781 190.003906 172.410156 C 188.636719 172.019531 185.121094 172.605469 183.363281 175.730469 C 181.605469 178.855469 179.066406 180.417969 177.699219 180.417969 C 176.332031 180.417969 171.449219 180.222656 171.644531 171.042969 "/>
<path style=" stroke:none;fill-rule:nonzero;fill:rgb(59.606934%,32.548523%,34.117126%);fill-opacity:1;" d="M 168.324219 195.070313 C 168.148438 192.277344 170.863281 189.015625 173.011719 188.429688 C 175.160156 187.84375 178.089844 188.234375 179.847656 189.210938 C 181.605469 190.1875 186.097656 190.1875 187.855469 190.382813 C 189.613281 190.574219 192.933594 189.210938 194.105469 189.210938 C 195.277344 189.210938 196.644531 190.382813 196.644531 190.382813 C 196.644531 190.382813 190.980469 193.507813 188.050781 194.875 C 185.121094 196.242188 184.730469 197.804688 183.167969 196.828125 C 181.605469 195.851563 180.628906 193.113281 180.628906 193.113281 C 180.628906 193.113281 178.871094 192.921875 177.894531 194.875 C 176.917969 196.828125 177.503906 197.414063 175.746094 197.609375 C 173.988281 197.804688 171.839844 197.414063 171.839844 197.414063 C 170.082031 198.195313 168.519531 198.195313 168.324219 195.070313 "/>
<path style=" stroke:none;fill-rule:nonzero;fill:rgb(59.606934%,32.548523%,34.117126%);fill-opacity:1;" d="M 198.796875 190.773438 C 199.027344 188.671875 203.871094 187.84375 207.777344 188.820313 C 211.6875 189.796875 214.03125 191.945313 216.570313 191.75 C 219.109375 191.550781 222.429688 190.96875 224.96875 190.382813 C 227.507813 189.796875 232.976563 190.578125 234.734375 191.164063 C 236.492188 191.75 235.710938 192.726563 233.367188 192.726563 C 231.023438 192.726563 229.65625 193.898438 227.703125 195.070313 C 225.75 196.242188 224.1875 193.3125 222.429688 194.289063 C 220.671875 195.265625 215.398438 198.777344 214.027344 198.777344 C 212.660156 198.777344 209.34375 196.046875 209.34375 195.265625 C 209.34375 194.484375 206.605469 190.96875 205.824219 191.945313 C 205.046875 192.921875 203.679688 194.875 202.507813 194.875 C 201.335938 194.875 198.402344 194.289063 198.796875 190.773438 "/>
<path style=" stroke:none;fill-rule:nonzero;fill:rgb(100%,100%,100%);fill-opacity:1;" d="M 232.390625 186.671875 C 232.132813 184.078125 236.6875 179.246094 237.273438 179.246094 C 237.859375 179.246094 238.25 179.246094 238.835938 181.199219 C 239.421875 183.152344 241.765625 183.152344 241.765625 185.105469 C 241.765625 187.0625 239.03125 187.257813 237.273438 187.449219 C 235.515625 187.648438 232.585938 188.625 232.390625 186.671875 "/>
<path style=" stroke:none;fill-rule:nonzero;fill:rgb(100%,100%,100%);fill-opacity:1;" d="M 217.742188 178.074219 C 217.351563 176.515625 217.15625 175.730469 215.789063 176.707031 C 214.421875 177.683594 212.269531 178.074219 210.511719 180.613281 C 208.757813 183.152344 206.804688 185.109375 207.777344 186.476563 C 208.757813 187.84375 212.464844 186.867188 214.027344 186.476563 C 215.59375 186.085938 219.109375 183.546875 219.109375 183.546875 C 219.109375 183.546875 218.882813 183.089844 217.9375 181.199219 C 217.546875 180.421875 217.742188 178.074219 217.742188 178.074219 "/>
<path style=" stroke:none;fill-rule:nonzero;fill:rgb(100%,100%,100%);fill-opacity:1;" d="M 180.238281 185.105469 C 179.457031 183.023438 184.535156 178.46875 186.878906 177.097656 C 189.222656 175.730469 191.175781 176.121094 191.175781 177.878906 C 191.175781 179.636719 191.371094 181.394531 191.371094 181.394531 C 191.371094 181.394531 193.128906 181.980469 195.472656 180.027344 C 197.816406 178.074219 199.96875 178.074219 199.96875 179.246094 C 199.96875 180.421875 199.382813 181.394531 199.382813 182.566406 C 199.382813 183.738281 200.355469 185.304688 199.96875 186.476563 C 199.574219 187.648438 194.691406 187.449219 193.128906 187.449219 C 191.566406 187.449219 190.199219 187.648438 189.222656 188.035156 C 188.246094 188.429688 186.097656 188.230469 184.339844 188.035156 C 182.582031 187.84375 180.824219 186.667969 180.238281 185.105469 "/>
<path style=" stroke:none;fill-rule:nonzero;fill:rgb(100%,100%,100%);fill-opacity:1;" d="M 261.9375 177.878906 C 261.863281 175.957031 262.9375 173.191406 263.710938 171.5 C 264.476563 169.808594 264.628906 167.117188 265.015625 166.730469 C 265.398438 166.347656 268.089844 169.269531 268.320313 173.804688 C 268.550781 178.339844 267.476563 179.800781 264.707031 179.878906 C 261.9375 179.957031 261.9375 177.878906 261.9375 177.878906 "/>
<path style=" stroke:none;fill-rule:nonzero;fill:rgb(100%,100%,100%);fill-opacity:1;" d="M 269.9375 178.726563 C 269.398438 177.878906 269.398438 175.804688 270.472656 174.957031 C 271.550781 174.113281 271.703125 171.421875 271.703125 171.421875 C 271.703125 171.421875 272.242188 170.265625 273.011719 171.804688 C 273.78125 173.34375 274.007813 174.648438 274.007813 176.109375 C 274.007813 177.570313 273.089844 178.953125 271.628906 179.109375 C 270.164063 179.261719 269.9375 178.726563 269.9375 178.726563 "/>
<path style=" stroke:none;fill-rule:nonzero;fill:rgb(100%,100%,100%);fill-opacity:1;" d="M 276.472656 178.03125 C 275.640625 177.617188 276.394531 176.109375 277.394531 174.957031 C 278.394531 173.804688 279.007813 172.191406 278.929688 171.574219 C 278.855469 170.960938 279.929688 170.421875 280.390625 171.882813 C 280.851563 173.34375 281.46875 175.109375 280.929688 176.34375 C 280.390625 177.570313 280.316406 177.878906 279.085938 178.1875 C 277.855469 178.492188 276.933594 178.261719 276.472656 178.03125 "/>
<path style=" stroke:none;fill-rule:nonzero;fill:rgb(100%,100%,100%);fill-opacity:1;" d="M 283.695313 178.265625 C 282.621094 178.207031 281.621094 177.570313 281.699219 176.496094 C 281.773438 175.417969 283.082031 174.882813 283.46875 174.265625 C 283.851563 173.652344 284.003906 171.882813 284.003906 171.652344 C 284.003906 171.421875 284.695313 171.421875 285.15625 172.113281 C 285.617188 172.804688 286.082031 174.265625 286.15625 175.417969 C 286.234375 176.574219 285.15625 178.339844 283.695313 178.265625 "/>
<path style=" stroke:none;fill-rule:nonzero;fill:rgb(100%,100%,100%);fill-opacity:1;" d="M 287.773438 177.800781 C 287.773438 177.800781 288.003906 175.417969 287.617188 174.1875 C 287.234375 172.957031 289.234375 172.035156 289.234375 171.34375 C 289.234375 170.652344 289.925781 169.960938 290.230469 170.804688 C 290.539063 171.652344 291.003906 173.957031 290.847656 175.34375 C 290.695313 176.726563 290.15625 178.03125 289.15625 178.570313 C 288.15625 179.109375 287.851563 178.1875 287.773438 177.800781 "/>
<path style=" stroke:none;fill-rule:nonzero;fill:rgb(100%,100%,100%);fill-opacity:1;" d="M 290.769531 169.960938 C 290.769531 169.960938 291.230469 166.652344 291.15625 166.039063 C 291.078125 165.425781 291.769531 165.039063 292.539063 166.5 C 293.308594 167.960938 295.539063 172.035156 295.613281 174.34375 C 295.691406 176.648438 295.769531 178.417969 294.308594 178.648438 C 292.847656 178.878906 291.078125 178.1875 291.078125 178.1875 C 291.078125 178.1875 291.617188 174.804688 291.464844 173.804688 C 291.308594 172.804688 290.769531 169.960938 290.769531 169.960938 "/>
</g>
</svg>
